PathFileType	4	(X/Y/Z)	15_1_4_p0_0-457_filt_butterworth.trc
DataRate	CameraRate	NumFrames	NumMarkers	Units	OrigDataRate	OrigDataStartFrame	OrigNumFrames
55.0	55.0	6	27	m	55.0	0	457
Frame#	Time	RHip			RKnee			RAnkle			RBigToe			RSmallToe			RHeel			LHip			LKnee			LAnkle			LBigToe			LSmallToe			LHeel			Neck			Head			Nose			RShoulder			RElbow			RWrist			RThumb			RIndex			RPinky			LShoulder			LElbow			LWrist			LThumb			LIndex			LPinky			
		X1	Y1	Z1	X2	Y2	Z2	X3	Y3	Z3	X4	Y4	Z4	X5	Y5	Z5	X6	Y6	Z6	X7	Y7	Z7	X8	Y8	Z8	X9	Y9	Z9	X10	Y10	Z10	X11	Y11	Z11	X12	Y12	Z12	X13	Y13	Z13	X14	Y14	Z14	X15	Y15	Z15	X16	Y16	Z16	X17	Y17	Z17	X18	Y18	Z18	X19	Y19	Z19	X20	Y20	Z20	X21	Y21	Z21	X22	Y22	Z22	X23	Y23	Z23	X24	Y24	Z24	X25	Y25	Z25	X26	Y26	Z26	X27	Y27	Z27	
0	0.0	0.23542656643329063	0.3359891339871903	1.1143125928450306	0.25291600365427397	0.265048276392996	1.5407073737078274	0.27054589911313753	0.21742111756253862	1.9069938294898892	0.2562317678256795	0.057203167182367926	1.924730241360435	0.3196752433850649	0.061293415496242086	1.9039724264036115	0.24959762059823812	0.2857124079385145	1.9839221773711555	0.00534374412346173	0.33352521026467563	1.1197438128473811	0.03170910502867989	0.27021567766442034	1.5385017102185155	0.05228988007995948	0.23691902289641875	1.9076385129133822	0.0696079281261058	0.06682797604885557	1.9341575226052232	0.01730199340286593	0.0912532357377367	1.9442180089651742	0.06321240206694212	0.2710405148769367	1.9601425089465814	0.08613065195666028	0.4499953077990081	0.5469673131064189	0.08166790211638454	0.44511525285762066	0.2925880451851916	0.06846098438127983	0.35555683698034146	0.40758438012905873	0.2438739978067941	0.4047339171479851	0.6162330278763642	0.2896605590090426	0.32389900311276204	0.8545562393276525	0.16630759771484335	0.16010389903271208	0.9821708018529759	0.08776120392534938	0.1369562052513964	1.06531133412087	0.08844333505358452	0.15720747677425878	1.0804471515855745	0.10001152107908355	0.1878087684872884	1.0976055796549185	-0.06349079069595286	0.3988253315156664	0.6095024755433386	-0.09158569315419772	0.2932338044757568	0.8258574835311066	0.02671232183575617	0.1889006547965676	0.9951867942977919	0.10638185501102775	0.1539846437144676	1.0485229975406862	0.11260811211614434	0.1575149763234373	1.0751739753994363	0.09974066340901024	0.17869208372447873	1.0882804814665228
1	0.0181818181818181	0.23271839473686567	0.3291140505805707	1.1100889277409052	0.25318779000723	0.2651629648863352	1.5406952893942396	0.271818041662237	0.21817367119241748	1.9110083214531834	0.25361103345444225	0.052315346649548525	1.9201016409851495	0.31699681069603336	0.0604378548670379	1.9060849314959627	0.24980341200513337	0.2772929272046296	1.977362385761742	0.005215890006251195	0.3328618697789455	1.1184272459922602	0.032127159786857415	0.27128357327705804	1.5390311917458637	0.05247778264688907	0.2391455895432045	1.9048261493403522	0.061373016068454786	0.07166425938195628	1.9290827636850731	0.015695993401453015	0.09516368256751093	1.936577449600917	0.06480131270386831	0.27477874808160196	1.9552303474855277	0.0861289280937242	0.4499380951243128	0.5469836203476681	0.08164694550899192	0.44507920553322955	0.29256790873114613	0.06829346588861691	0.3558678956025302	0.4055208245496338	0.24394168122711468	0.40398932055841974	0.6150771210475909	0.2903344884406535	0.31697104003420734	0.8481299879243875	0.16658118780955947	0.16094303748654037	0.9818491208611116	0.0912642551842032	0.14136768716421283	1.0655096513616116	0.09000044136862657	0.16080055679733854	1.0825488577394604	0.10002185988654205	0.18850655343875256	1.0978911134478	-0.06120855442938432	0.3998449696381599	0.6107224993663475	-0.09317595303835438	0.29731537419475174	0.8277752480232661	0.02713365180735973	0.188899439430698	0.9951319444259016	0.10730059289673459	0.15800244155779383	1.047802473486848	0.11382890087226476	0.16050785570760356	1.0779161006889026	0.09789944313343794	0.18530295202951896	1.092134713258885
2	0.0363636363636363	0.2312591748979793	0.32524991927760877	1.1088817130774244	0.25313134277641547	0.26551010987491236	1.5398293385081625	0.2734448968896595	0.22090036874560184	1.9146735270502704	0.25300839960027677	0.05100656173313403	1.9195701663194709	0.31620572998611113	0.060662853310745724	1.9074083172106997	0.2518538992648923	0.277217303940313	1.9790788797637724	0.004434916242070977	0.33024190507671486	1.1167169698700676	0.032375127971384955	0.2718647637955587	1.5394307038560817	0.051833269918183794	0.23999295879468108	1.9039211426348193	0.05785732656099924	0.07412350879344878	1.9254137781641947	0.014818321493590483	0.0973974865262415	1.9322640991765225	0.06568846172752671	0.27678168883502685	1.952588404440331	0.08612893309742604	0.44986233312342394	0.5469822688493998	0.08158204444498633	0.4448927183180115	0.29252537653206845	0.06819971045209083	0.35605687974963995	0.40433125750400595	0.2445379645320785	0.40122701030209496	0.6133527291400515	0.29049530028686354	0.31326920917179607	0.8467551460443521	0.16777993660275542	0.16324367217814656	0.9839721553570373	0.09392844507164577	0.14541526736528562	1.0665776988855553	0.09149698446570759	0.16441530419473516	1.0846216107288902	0.10002768139449775	0.18882974258522964	1.0980402324418157	-0.0608108185126245	0.399976372527158	0.6107606108806886	-0.09474650769047013	0.30144280940730567	0.8297339987653928	0.02894916837111298	0.18898124929993793	0.9951753058478483	0.10855061342624847	0.16180110502273176	1.0474277004306918	0.11521716349396796	0.16379004923483262	1.0796662028916315	0.09757392036310286	0.18678101937136393	1.092978657874216
3	0.0545454545454545	0.2310662790037737	0.3244004184561027	1.1095932377436557	0.25242806053423095	0.2658281184324722	1.5378764655008854	0.27519788238437115	0.22497571770592034	1.9176665593593918	0.25424828920724263	0.05314111109989985	1.9225297771523024	0.31734118039701154	0.06110141104889107	1.9070428102224797	0.2547864147727046	0.2842189441028208	1.9866917902247434	0.0032478433595432214	0.3265023765360146	1.114271318434969	0.032429525594782765	0.27196450353464885	1.5395232938666403	0.050874963097583034	0.2397168350785856	1.9044404451270038	0.058535409091660724	0.0722108356584796	1.9218013279549686	0.014638738776914488	0.09785546877964785	1.9313085782022417	0.06587456562762001	0.2771145603255032	1.9521387336075127	0.08612999231892444	0.44978245165311403	0.5469522517226988	0.08155677308527892	0.4448220206204591	0.29250994890812043	0.06817524541584744	0.35611128779414564	0.4040186793416371	0.24550275996993381	0.3971028984385321	0.6112384643112357	0.29082172404454504	0.31276378025285234	0.8491661470103935	0.16955911186523245	0.16652163445457538	0.987603951986054	0.09559294152076717	0.14894983837952025	1.0678515812302742	0.0924574568153911	0.1670345430303179	1.0857470612084263	0.10001402225539044	0.18877473760368155	1.0980232784816968	-0.062168728794151834	0.3993867461516709	0.6091862821552592	-0.09578366353403273	0.30436850261016213	0.8311381835179534	0.03206368653341515	0.18910664275417807	0.9952836481745565	0.10957141275900646	0.16423111828668885	1.0473603376518916	0.11628204937857164	0.1662366801208952	1.0802696418955413	0.09854715479515376	0.18368052320641498	1.0911232984210675
4	0.0727272727272727	0.2313808881972338	0.32461502261249436	1.1097304184242505	0.25097969984273805	0.26499474523385125	1.5351749756960649	0.2762941564285145	0.22804093362960035	1.9191183530157994	0.2557662565679972	0.05604061869537405	1.925153768424282	0.3188469493893363	0.061098053458271184	1.9056938072087077	0.25645443928978284	0.2920418691974075	1.9932334643824343	0.002408112360921754	0.3239696650608392	1.1118244337039278	0.032315784209091196	0.27187565156899385	1.5389666778801991	0.05036737584778391	0.2392907819013111	1.9050044142654268	0.0598660016702227	0.06672921686052104	1.9175645371992025	0.01469699733993659	0.09748396741586285	1.9317517310264516	0.06576292551936454	0.27680730265027087	1.9526621296601276	0.0861353046077439	0.44972972755337476	0.5469007894072734	0.08189167868988034	0.44579692724046777	0.29271086176897354	0.06817190712225107	0.3560920074425632	0.4040595624171547	0.24621978113435772	0.3940640054972018	0.6094489417153203	0.2923077450008254	0.3134187747518329	0.850460903704024	0.17079462312577276	0.16897311267441717	0.9900657785812177	0.09687667036097833	0.15280524739695	1.0684236041554493	0.09263648162911133	0.1682212139489007	1.0852860109107962	0.09998531151900432	0.18860508592448852	1.0979119584475194	-0.0636436230883795	0.39886430820527846	0.6070237587227845	-0.09587122797077617	0.3054295195596958	0.8316906126930125	0.035214603823152286	0.18922034489012013	0.9951886272787247	0.10994023929129956	0.16512370651096114	1.0477850567575386	0.11666404028047259	0.1671215409114328	1.0802487734096122	0.09952420421670388	0.18020904010532388	1.0890268286840399
5	0.0909090909090909	0.2316742694929591	0.3246612193050921	1.108998479397407	0.24940859281999578	0.26208229742425954	1.5326219325891597	0.2763921668760512	0.22906586257526795	1.9186772442577416	0.25668242570208044	0.05798035793060964	1.9249805890445884	0.31956548007135893	0.06107694516880776	1.9047675304676652	0.25651587125126407	0.29664359030337467	1.9959205172958399	0.0021778692314749224	0.3233424104048243	1.1104859136892882	0.032032939060604726	0.2717885617526006	1.5375174988976714	0.050305405738418185	0.23911648175291095	1.9051601831209584	0.06006390403657854	0.0616032848772247	1.914077631835383	0.014727836170932722	0.09704544950277062	1.9322291295477272	0.06558525734134436	0.2764219826826869	1.9537235825602024	0.08614814673325931	0.44972007302036904	0.5468519463355513	0.08289333355177196	0.44864234649415224	0.2933156311033201	0.06815702280258151	0.3560816491947779	0.40410987087482114	0.24643609428640775	0.3931218874962408	0.6085017856510084	0.29423389014901513	0.3138320078391946	0.8487657956330947	0.1710109500000966	0.16982853090493563	0.9905545600668374	0.09812476734005952	0.15716511683992354	1.0683684898450254	0.09235404928353341	0.1686381041963008	1.0838764790320476	0.09997265074717575	0.18848987748254006	1.0977809085376	-0.06394304153518117	0.3989188491931276	0.6057081642377563	-0.0951445772301762	0.30541312408082133	0.8318054069722182	0.03739415703671668	0.1894522667095876	0.9943438480778155	0.11016520610273599	0.1661446007122331	1.0487765152299546	0.11661756765004758	0.16712271795955633	1.080113427802987	0.09992393450122881	0.1787747523074158	1.0880798705902506
